# xmcd
#
# Track frame offsets:
# 150
# 25877
# 43882
# 60102
# 77715
# 102242
# 120007
# 146485
# 178287
#
# Disc length: 2546 seconds
#
#
# Revision: 4
# Processed by: cddbd v1.5.2PL0 Copyright (c) Steve Scherf et al.
# Submitted via: FreeRIP 2.951 
#
DISCID=6c09f009
DTITLE=Willie Nelson - Willie Nelson Sings Kristofferson
DYEAR=1979
DGENRE=Country
TTITLE0=Me and Bobby McGee
TTITLE1=Help Me Make it Through the Night
TTITLE2=The Pilgrim: Chapter 33
TTITLE3=Why Me
TTITLE4=For the Good Times
TTITLE5=You Show Me Yours
TTITLE6=Loving Her Was Easier (Than Anything I'll Ever Do Again)
TTITLE7=Sunday Mornin' Comin' Down
TTITLE8=Please Don't Tell Me How the Story Ends
EXTD=
EXTT0=
EXTT1=
EXTT2=
EXTT3=
EXTT4=
EXTT5=
EXTT6=
EXTT7=
EXTT8=
PLAYORDER=
